<svg xmlns="http://www.w3.org/2000/svg" viewBox="0 0 552.89 572.98"><defs><style>.cls-1{fill:#fff}</style></defs><title>Asset 2</title><g id="Layer_2" data-name="Layer 2"><path class="cls-1" d="M245 0c9.53 1.35 19.12 2.35 28.58 4.09C367.78 21.45 442.08 96.6 458 191.2c10.64 63.12-2.78 121.05-39.42 173.57-.86 1.23-1.7 2.46-2.51 3.72a6.74 6.74 0 0 0-.31 1.63L552.89 507.3 487.27 573a28 28 0 0 0-3.07-4.3q-67.13-67.21-134.28-134.4c-2.74-2.75-4.52-3.4-8.32-1.33-44.23 24.07-91.45 33.26-141.36 26.29C106.38 446.13 33 381.58 8 290.09c-3.62-13.24-4.8-27.15-7.12-40.75-.22-1.45-.57-2.89-.88-4.34v-28c1.29-9.17 2.3-18.4 3.9-27.51C20.33 96.1 94.74 21.13 187.94 4.11 197.56 2.36 207.31 1.35 217 0zm124.27 230.89A138.44 138.44 0 0 0 230.85 92.2c-76.2-.08-138.25 61.74-138.63 138.14S154 369 230.55 369.17a138.24 138.24 0 0 0 138.72-138.28z" id="Layer_1-2" data-name="Layer 1"/></g></svg>
